<svg width="1440" height="1512" viewBox="0 0 1440 1512" fill="none" xmlns="http://www.w3.org/2000/svg">
<g opacity="0.2">
<mask id="mask0_81_420" style="mask-type:luminance" maskUnits="userSpaceOnUse" x="-313" y="0" width="2066" height="1512">
<path d="M1526.83 0.761456L-312.423 1150.3L-86.8347 1511.24L1752.42 361.703L1526.83 0.761456Z" fill="white"/>
</mask>
<g mask="url(#mask0_81_420)">
<path d="M953.235 769.987C930.609 784.128 903.573 794.589 871.133 801.797C836.505 809.493 799.875 812.552 765.324 815.026C745.334 816.458 724.902 817.502 705.142 818.511C645.647 821.549 584.126 824.691 525.26 838.826C455.821 855.498 397.106 890.138 350.732 941.782C322.835 972.85 299.311 1008.1 276.562 1042.18C260.725 1065.91 244.348 1090.45 226.627 1113.38C200.843 1146.75 172.413 1174.43 142.129 1195.64C126.199 1206.83 109.261 1216.5 91.5347 1224.54C73.299 1232.77 54.2938 1239.16 34.7974 1243.64C-54.1103 1264.07 -147.298 1253.33 -237.417 1242.95C-243.573 1242.24 -249.712 1241.53 -255.835 1240.83L-255.805 1240.57C-249.683 1241.27 -243.543 1241.97 -237.385 1242.68C-147.295 1253.07 -54.1248 1263.8 34.7347 1243.38C108.237 1226.49 172.728 1182.7 226.415 1113.22C244.129 1090.3 260.503 1065.77 276.341 1042.04C299.097 1007.94 322.625 972.687 350.535 941.604C396.946 889.919 455.703 855.257 525.194 838.568C584.085 824.427 645.618 821.285 705.125 818.246C724.883 817.237 745.313 816.194 765.303 814.763C826.037 810.415 909.212 804.461 967.816 759.568C1052.57 694.645 1041.95 580.618 1032.59 480.013C1029.57 447.509 1026.71 416.806 1026.92 388.592C1027.13 361.089 1030.71 339.589 1037.86 322.872C1041.9 313.058 1047.94 304.187 1055.57 296.817C1064.03 288.982 1074.26 283.304 1085.38 280.266C1132.62 266.73 1187.76 279.791 1236.41 291.315C1245.2 293.397 1253.5 295.363 1261.68 297.159L1261.62 297.419C1253.44 295.618 1245.15 293.649 1236.35 291.575C1187.74 280.059 1132.63 267.006 1085.45 280.525C1033.85 295.311 1027.49 349.288 1027.19 388.601C1026.98 416.796 1029.84 447.492 1032.86 479.989C1037.65 531.469 1042.6 584.7 1035.81 633.758C1032.13 660.318 1025.41 682.959 1015.27 702.971C1009.81 713.76 1003.2 723.92 995.535 733.27C987.393 743.126 978.151 752.019 967.988 759.776C963.295 763.372 958.38 766.776 953.243 769.987" fill="url(#paint0_linear_81_420)" fill-opacity="0.7"/>
<path d="M965.872 753.392C921.374 781.202 867.249 790.004 824.183 794.52C806.709 796.356 789.248 797.606 772.862 798.729C755.892 799.893 738.562 800.824 721.802 801.724C672.071 804.388 620.653 807.154 571.183 816.401C558.343 818.803 545.866 821.591 534.097 824.684C466.078 842.594 408.642 878.303 363.379 930.82C336.153 962.397 313.299 998.099 291.197 1032.63C276.037 1056.31 260.362 1080.8 243.426 1103.71C228.476 1124.15 211.752 1143.22 193.448 1160.71C174.519 1178.87 153.458 1194.68 130.727 1207.77C107.347 1221.09 82.026 1230.65 55.6843 1236.13C25.3978 1242.36 -4.73498 1243.37 -40.6615 1242.96C-60.8631 1242.69 -81.6484 1241.65 -101.748 1240.65C-115.167 1239.98 -129.044 1239.29 -142.639 1238.83C-174.506 1237.71 -205.537 1237.18 -235.544 1236.66L-248.331 1236.44L-248.326 1236.12L-235.539 1236.34C-205.529 1236.86 -174.499 1237.39 -142.628 1238.51C-129.032 1238.97 -115.154 1239.66 -101.732 1240.33C-81.6325 1241.33 -60.858 1242.37 -40.6572 1242.64C-4.75229 1243.05 25.3615 1242.04 55.6199 1235.81C105.512 1225.55 150.522 1200.91 193.223 1160.48C211.517 1143 228.232 1123.94 243.174 1103.52C260.103 1080.61 275.775 1056.13 290.933 1032.46C313.043 997.921 335.903 962.207 363.141 930.613C408.443 878.048 465.933 842.305 534.016 824.379C545.793 821.283 558.279 818.495 571.126 816.09C620.618 806.841 672.05 804.079 721.788 801.408C738.547 800.507 755.876 799.577 772.843 798.412C789.228 797.289 806.685 796.039 824.157 794.208C870.34 789.361 929.265 779.589 975.328 746.7C1006.82 724.087 1028.03 693.962 1040.19 654.618C1056.77 601.454 1054.18 540.343 1051.68 481.243C1050.35 450.012 1049.1 420.516 1050.71 393.27C1052.31 366.207 1056.61 346.075 1064.26 329.904C1068.64 320.35 1074.86 311.754 1082.57 304.608C1091.12 296.969 1101.3 291.388 1112.34 288.29C1158.93 274.626 1213.07 285.594 1260.84 295.27C1270.11 297.147 1278.86 298.919 1287.48 300.51L1287.43 300.825C1278.8 299.235 1270.05 297.461 1260.78 295.583C1213.05 285.914 1158.94 274.955 1112.43 288.598C1062.62 303.158 1053.45 352.196 1051.02 393.291C1049.41 420.513 1050.67 450.008 1051.99 481.235C1054.5 540.361 1057.1 601.501 1040.49 654.712C1028.31 694.132 1007.06 724.306 975.51 746.961C972.356 749.212 969.144 751.358 965.873 753.4" fill="url(#paint1_linear_81_420)" fill-opacity="0.7"/>
<path d="M978.25 737.222C959.161 749.152 937.12 758.344 911.059 765.238C888.564 771.193 863.311 775.407 831.603 778.493C814.861 780.128 798.512 781.243 780.405 782.431C766.423 783.348 752.153 784.138 738.355 784.904C685.84 787.815 631.534 790.825 579.613 801.557C566.936 804.183 554.596 807.206 542.94 810.544C477.398 828.969 419.122 867.135 376.038 919.852C349.482 951.957 327.295 988.138 305.835 1023.13C291.363 1046.74 276.386 1071.15 260.241 1094.03C245.876 1114.63 229.766 1133.96 212.088 1151.79C191.879 1172 171.941 1187.85 151.129 1200.24C128.175 1214.07 102.934 1223.67 76.5982 1228.61C44.1266 1234.57 10.9316 1232.85 -21.1706 1231.19L-24.6216 1231.02C-34.6699 1230.47 -44.9978 1229.77 -54.9889 1229.1C-80.3159 1227.39 -106.504 1225.63 -132.12 1225.9C-165.117 1226.17 -196.314 1228.59 -226.479 1230.93C-231.269 1231.3 -236.04 1231.67 -240.792 1232.03L-240.82 1231.65C-236.067 1231.29 -231.296 1230.92 -226.508 1230.55C-196.336 1228.21 -165.133 1225.79 -132.117 1225.52C-106.487 1225.25 -80.29 1227.01 -54.9535 1228.71C-44.967 1229.39 -34.6404 1230.08 -24.5951 1230.63L-21.1454 1230.81C10.9357 1232.46 44.1083 1234.18 76.5365 1228.23C124.81 1219.37 169.065 1194.28 211.828 1151.51C229.484 1133.7 245.576 1114.4 259.925 1093.82C276.065 1070.95 291.038 1046.54 305.513 1022.93C326.977 987.932 349.17 951.74 375.743 919.614C418.875 866.839 477.216 828.629 542.832 810.184C554.496 806.846 566.846 803.819 579.532 801.191C631.487 790.45 685.799 787.442 738.336 784.527C752.135 783.763 766.402 782.971 780.382 782.053C798.485 780.866 814.831 779.752 831.565 778.114C877.807 773.613 936.801 764.506 982.829 733.807C1014.25 712.858 1036.32 684.496 1050.3 647.103C1069.1 596.81 1069.9 538.55 1070.68 482.21C1071.09 452.34 1071.48 424.13 1074.48 397.91C1076.37 381.41 1080.11 357.135 1090.64 336.911C1095.36 327.624 1101.78 319.301 1109.55 312.372C1118.19 304.925 1128.34 299.435 1139.3 296.278C1159.83 290.117 1183.52 287.942 1211.72 289.626C1236.54 291.108 1261.32 295.27 1285.29 299.295C1295.02 300.931 1304.22 302.476 1313.29 303.823L1313.23 304.195C1304.17 302.846 1294.96 301.302 1285.22 299.666C1238.37 291.796 1185.26 282.879 1139.41 296.634C1090.84 311.122 1079.4 358.387 1074.86 397.946C1071.86 424.147 1071.47 452.352 1071.06 482.208C1070.28 538.581 1069.48 596.874 1050.66 647.228C1036.65 684.699 1014.53 713.12 983.044 734.115C981.469 735.166 979.872 736.197 978.254 737.208" fill="url(#paint2_linear_81_420)" fill-opacity="0.7"/>
<path d="M991.368 720.807L990.57 721.306C970.236 733.877 946.601 743.356 918.323 750.276C895.987 755.742 870.789 759.616 839.02 762.469C822.001 764.005 804.973 765.069 788.503 766.098L787.946 766.133C776.916 766.824 765.672 767.455 754.788 768.07C699.504 771.18 642.338 774.397 588.042 786.715C575.522 789.564 563.318 792.817 551.782 796.404C486.584 816.715 431.711 854.56 388.688 908.889C362.796 941.548 341.275 978.231 320.465 1013.7C306.669 1037.22 292.403 1061.54 277.039 1084.37C263.255 1105.13 247.758 1124.71 230.711 1142.89C210.796 1163.95 191.426 1180.25 171.506 1192.71L171.422 1192.76C148.951 1207.11 123.798 1216.76 97.4895 1221.11C66.2641 1226.18 34.5335 1223.17 3.84951 1220.26C-0.237422 1219.88 -4.46147 1219.47 -8.60905 1219.1C-14.3062 1218.58 -20.1484 1218.02 -25.7974 1217.49C-57.2581 1214.49 -89.7895 1211.39 -121.618 1213C-156.456 1214.65 -188.449 1220.06 -219.391 1225.3C-223.95 1226.08 -228.661 1226.88 -233.272 1227.64L-233.343 1227.21C-228.735 1226.45 -224.02 1225.65 -219.463 1224.88C-188.508 1219.64 -156.5 1214.22 -121.638 1212.57C-89.7789 1210.96 -57.2321 1214.06 -25.7559 1217.06C-20.1042 1217.59 -14.266 1218.15 -8.56967 1218.67C-4.42521 1219.04 -0.201323 1219.44 3.88974 1219.83C34.5475 1222.74 66.2493 1225.75 97.4196 1220.68C145.086 1212.93 187.34 1188.12 230.397 1142.59C247.429 1124.43 262.912 1104.87 276.684 1084.12C292.04 1061.3 306.302 1036.99 320.096 1013.48C340.915 977.994 362.442 941.298 388.353 908.617C431.43 854.219 486.373 816.324 551.657 795.988C563.209 792.403 575.425 789.137 587.947 786.292C642.281 773.967 699.465 770.748 754.767 767.636C765.644 767.024 776.891 766.391 787.921 765.7L788.478 765.665C804.944 764.636 821.968 763.571 838.982 762.036C888.087 757.629 944.471 749.299 990.342 720.937C1021.79 701.501 1044.71 674.891 1060.42 639.608C1081.57 592.104 1085.72 536.568 1089.74 482.862C1091.87 454.478 1093.87 427.664 1098.26 402.567C1105.35 362.044 1118.96 318.678 1166.25 304.291C1186.5 298.077 1209.79 295.471 1237.44 296.323C1261.8 297.073 1286.17 300.316 1309.74 303.454C1319.94 304.813 1329.59 306.094 1339.09 307.163L1339.04 307.593C1329.53 306.523 1319.89 305.241 1309.69 303.882C1263.71 297.763 1211.6 290.828 1166.38 304.704C1119.32 319.025 1105.75 362.249 1098.69 402.64C1094.3 427.722 1092.3 454.521 1090.18 482.891C1086.15 536.63 1081.99 592.2 1060.81 639.778C1045.2 674.844 1022.48 701.357 991.369 720.803" fill="url(#paint3_linear_81_420)" fill-opacity="0.7"/>
<path d="M1004.9 704.417C1002.68 705.81 1000.41 707.167 998.098 708.488C952.086 734.737 895.612 742.407 846.436 746.443C830.649 747.748 814.797 748.688 799.459 749.601L795.482 749.837C787.372 750.322 779.107 750.786 771.114 751.235C713.084 754.502 653.071 757.87 596.462 771.876C584.098 774.944 572.038 778.44 560.609 782.272C496.815 803.745 443.224 842.659 401.325 897.93C376.095 931.166 355.241 968.377 335.074 1004.36C321.962 1027.76 308.404 1051.95 293.825 1074.69C280.618 1095.63 265.735 1115.46 249.323 1133.98C229.77 1155.86 210.976 1172.59 191.866 1185.14C168.353 1200.57 144.316 1209.88 118.368 1213.6C87.4777 1218.02 56.254 1213.76 26.0571 1209.63C19.9299 1208.8 13.5946 1207.93 7.39814 1207.16C4.77634 1206.84 2.14617 1206.51 -0.49242 1206.18C-36.8006 1201.61 -74.3444 1196.9 -111.121 1200.08C-147.861 1203.13 -180.692 1211.61 -212.442 1219.81C-216.817 1220.94 -221.339 1222.11 -225.757 1223.24L-225.872 1222.76C-221.454 1221.63 -216.929 1220.47 -212.559 1219.34C-180.789 1211.13 -147.936 1202.64 -111.154 1199.59C-74.3256 1196.4 -36.7548 1201.13 -0.423412 1205.69C2.21465 1206.02 4.84486 1206.35 7.46719 1206.68C13.6666 1207.45 20.004 1208.32 26.1313 1209.15C56.2942 1213.27 87.4832 1217.52 118.306 1213.11C179.618 1204.34 222.241 1163.56 248.963 1133.65C265.358 1115.15 280.226 1095.34 293.419 1074.43C307.992 1051.69 321.541 1027.51 334.646 1004.11C354.82 968.109 375.682 930.881 400.934 897.619C421.051 870.862 444.975 847.193 471.945 827.365C498.955 807.746 528.809 792.379 560.47 781.797C571.905 777.967 583.979 774.466 596.356 771.394C653.005 757.382 713.035 754.007 771.087 750.738C779.081 750.289 787.345 749.824 795.455 749.339L799.431 749.104C814.759 748.193 830.609 747.254 846.391 745.948C895.512 741.912 951.922 734.259 997.848 708.052C1029.32 690.099 1053.09 665.252 1070.53 632.096C1094.11 587.263 1101.63 534.336 1108.91 483.153C1112.71 456.383 1116.31 431.093 1122.04 407.214C1126.32 389.417 1132.2 368.822 1143.41 350.972C1155.59 331.571 1171.88 318.92 1193.21 312.298C1213.18 306.033 1236.06 303.009 1263.17 303.056C1287.07 303.098 1311.03 305.442 1334.21 307.709C1344.88 308.752 1354.95 309.738 1364.89 310.496L1364.86 310.983C1354.91 310.231 1344.83 309.238 1334.16 308.195C1289.05 303.782 1237.93 298.781 1193.35 312.766C1147.66 326.955 1132.31 366.601 1122.52 407.329C1116.78 431.186 1113.19 456.463 1109.39 483.223C1102.11 534.448 1094.58 587.42 1070.97 632.326C1054.77 663.132 1033.1 686.791 1004.9 704.418" fill="url(#paint4_linear_81_420)" fill-opacity="0.7"/>
<path d="M1019.06 687.962C1014.72 690.672 1010.24 693.236 1005.62 695.654C984.965 706.466 961.158 714.54 932.841 720.338C910.617 724.889 886.26 728.001 853.854 730.409C839.367 731.497 824.771 732.312 810.657 733.1L803.03 733.527C797.808 733.824 792.58 734.115 787.346 734.402C726.581 737.76 663.748 741.233 604.908 757.016C592.697 760.303 580.773 764.033 569.474 768.111C507.079 790.723 454.775 830.701 413.999 886.944C389.423 920.784 369.236 958.554 349.715 995.082C337.294 1018.33 324.441 1042.37 310.654 1065C298.02 1086.11 283.751 1106.19 267.976 1125.06C248.594 1148.04 230.89 1164.72 212.261 1177.54C189.066 1193.51 165.19 1202.84 139.283 1206.07C108.132 1209.96 76.7932 1204.45 46.4869 1199.12C38.9135 1197.79 31.0801 1196.41 23.4397 1195.22L22.4507 1195.06C-17.9088 1188.77 -59.6423 1182.25 -100.589 1187.15C-139.248 1191.63 -172.909 1203.23 -205.461 1214.45C-209.647 1215.89 -213.974 1217.38 -218.204 1218.82L-218.38 1218.3C-214.147 1216.86 -209.824 1215.37 -205.638 1213.93C-173.057 1202.7 -139.371 1191.09 -100.652 1186.61C-59.6326 1181.7 -17.8649 1188.21 22.5356 1194.53L23.5245 1194.68C31.1714 1195.87 39.0061 1197.25 46.5838 1198.58C76.851 1203.9 108.148 1209.41 139.217 1205.53C198.83 1198.09 239.121 1158.43 267.56 1124.71C283.316 1105.86 297.568 1085.8 310.186 1064.72C323.965 1042.1 336.81 1018.06 349.232 994.822C368.762 958.28 388.959 920.493 413.554 886.623C432.97 859.582 456.18 835.48 482.471 815.059C508.795 794.863 538.082 778.857 569.294 767.605C580.611 763.526 592.546 759.789 604.772 756.498C663.667 740.699 726.533 737.231 787.322 733.865C792.554 733.576 797.782 733.284 803.006 732.991L810.633 732.563C824.745 731.775 839.334 730.964 853.819 729.873C902.984 726.209 959.442 719.226 1005.37 695.178C1036.87 678.694 1061.49 655.608 1080.67 624.594C1106.8 582.321 1117.73 531.856 1128.29 483.053C1133.7 458.035 1138.82 434.4 1145.84 411.865C1151.2 394.672 1158.23 374.829 1169.8 358.011C1182.66 339.308 1199.14 326.978 1220.18 320.313C1239.87 314 1262.35 310.574 1288.92 309.841C1312.36 309.194 1335.91 310.66 1358.68 312.073C1369.81 312.766 1380.32 313.42 1390.7 313.831L1390.68 314.377C1380.29 313.965 1369.77 313.311 1358.64 312.617C1312.24 309.729 1264.26 306.744 1220.34 320.829C1175.9 334.908 1158.52 372.982 1146.35 412.026C1139.34 434.538 1134.22 458.16 1128.81 483.168C1118.24 532.016 1107.31 582.525 1081.13 624.879C1065.66 650.475 1044.4 672.082 1019.06 687.962Z" fill="url(#paint5_linear_81_420)" fill-opacity="0.7"/>
<path d="M1034.27 671.284C1027.46 675.533 1020.4 679.391 1013.15 682.839C967.297 704.711 913.055 710.928 861.265 714.393C848.144 715.278 834.885 715.968 822.063 716.635C818.218 716.838 814.386 717.039 810.567 717.238L803.471 717.618C739.99 721.01 674.346 724.516 613.335 742.18C601.272 745.686 589.489 749.655 578.318 753.982C517.314 777.707 466.285 818.756 426.65 875.989C402.732 910.456 383.209 948.81 364.333 985.908C352.599 1008.98 340.464 1032.84 327.465 1055.33C315.425 1076.62 301.767 1096.96 286.613 1116.16C267.729 1139.92 250.583 1157.01 232.638 1169.95C209.79 1186.43 186.089 1195.79 160.184 1198.57C128.453 1201.98 96.673 1195.22 65.9415 1188.68C57.2347 1186.83 48.2299 1184.92 39.4704 1183.29C1.62384 1176.28 -45.4774 1167.56 -90.0664 1174.23C-130.654 1180.15 -165.131 1194.93 -198.466 1209.21C-202.471 1210.93 -206.614 1212.7 -210.66 1214.41L-210.894 1213.86C-206.851 1212.15 -202.709 1210.37 -198.703 1208.66C-165.329 1194.36 -130.817 1179.57 -90.157 1173.63C-45.4702 1166.94 1.68694 1175.67 39.5763 1182.69C48.3489 1184.32 57.3558 1186.23 66.0691 1188.09C96.7547 1194.61 128.487 1201.36 160.122 1197.96C218.947 1191.65 258.378 1150.72 286.146 1115.77C301.281 1096.6 314.921 1076.29 326.947 1055.02C339.936 1032.55 352.078 1008.7 363.806 985.634C382.691 948.518 402.219 910.14 426.166 875.63C444.885 848.297 467.385 823.757 492.995 802.742C518.629 781.968 547.347 765.318 578.112 753.394C589.303 749.067 601.102 745.092 613.182 741.581C674.26 723.898 739.938 720.39 803.452 716.995L810.549 716.616C814.363 716.412 818.195 716.211 822.044 716.012C834.865 715.346 848.12 714.657 861.237 713.77C912.963 710.313 967.135 704.104 1012.89 682.278C1044.02 667.572 1070.85 645.115 1090.8 617.061C1119.66 577.227 1134.07 529.054 1148 482.468C1154.6 460.373 1161.43 437.528 1169.63 416.485C1176.42 399.053 1184.33 380.756 1196.18 365.022C1208.82 347.669 1226.68 334.804 1247.14 328.299C1266.54 321.941 1288.63 318.129 1314.65 316.637C1337.64 315.324 1360.77 315.931 1383.14 316.519C1394.73 316.823 1405.68 317.112 1416.51 317.143L1416.51 317.744C1405.67 317.71 1394.72 317.429 1383.12 317.119C1337.64 315.922 1290.61 314.687 1247.33 328.866C1202.02 343.515 1183.76 381.884 1170.2 416.698C1162.01 437.719 1155.49 459.537 1148.58 482.642C1134.64 529.273 1120.22 577.498 1091.3 617.414C1081.81 630.671 1070.79 642.766 1058.47 653.448C1050.88 659.998 1042.8 665.955 1034.29 671.266" fill="url(#paint6_linear_81_420)" fill-opacity="0.7"/>
<path d="M240.948 1170.63C222.91 1182.13 202.378 1189.13 181.075 1191.05C148.578 1194 116.165 1186 84.8198 1178.26C75.1641 1175.87 65.1786 1173.41 55.4827 1171.35C9.49935 1161.59 -35.4369 1153.48 -79.5601 1161.31C-122.077 1168.69 -157.348 1186.67 -191.456 1204.06C-195.292 1206.02 -199.259 1208.04 -203.131 1210L-203.426 1209.41C-199.555 1207.46 -195.593 1205.43 -191.754 1203.48C-157.602 1186.07 -122.287 1168.06 -79.674 1160.66C-59.3051 1157.05 -36.9886 1156.58 -11.4526 1159.23C11.8927 1161.65 35.4068 1166.42 55.6127 1170.71C65.3207 1172.77 75.3091 1175.24 84.9713 1177.63C116.264 1185.35 148.622 1193.34 181.01 1190.4C239.23 1185.11 277.701 1142.97 304.714 1106.84C319.203 1087.33 332.23 1066.77 343.689 1045.34C355.89 1023.03 367.31 999.405 378.36 976.56C396.599 938.835 415.459 899.828 438.762 864.641C456.785 837.022 478.573 812.051 503.494 790.45C528.442 769.105 556.594 751.819 586.917 739.228C597.987 734.646 609.644 730.437 621.58 726.71C684.777 707.039 752.549 703.601 818.088 700.284C823.273 700.023 828.586 699.774 833.724 699.523C845.16 698.976 856.983 698.41 868.654 697.712C920.513 694.647 974.791 689.098 1020.41 669.416C1051.59 656.083 1079.18 635.574 1100.93 609.558C1132.76 572.04 1150.79 525.963 1168.21 481.398C1176.07 461.297 1184.2 440.51 1193.41 421.135C1200.84 405.504 1209.83 387.535 1222.55 372.104C1235.9 355.437 1253.8 343.006 1274.09 336.322C1316.9 322.097 1363.1 321.601 1407.77 321.125C1419.76 320.997 1431.08 320.873 1442.3 320.495L1442.32 321.151C1431.09 321.533 1419.77 321.652 1407.78 321.78C1363.16 322.254 1317.01 322.747 1274.3 336.943C1230.31 351.56 1210.51 386.688 1194 421.41C1184.81 440.764 1176.68 461.54 1168.82 481.63C1151.38 526.242 1133.34 572.376 1101.43 609.975C1091.12 622.249 1079.5 633.37 1066.79 643.142C1052.59 653.978 1037.1 663.002 1020.66 670.005C999.701 679.045 975.719 685.715 947.344 690.392C919.61 694.963 890.738 697.045 868.684 698.35C857.009 699.047 845.183 699.614 833.747 700.161C828.61 700.408 823.296 700.662 818.113 700.922C752.615 704.243 684.887 707.678 621.775 727.316C609.858 731.038 598.215 735.243 587.17 739.814C527.549 764.627 477.799 806.744 439.309 864.994C416.034 900.141 397.184 939.129 378.954 976.833C367.904 999.69 356.478 1023.32 344.266 1045.63C332.792 1067.09 319.748 1087.68 305.24 1107.22C286.918 1131.72 270.319 1149.22 253.002 1162.3C249.016 1165.31 244.996 1168.08 240.943 1170.62" fill="url(#paint7_linear_81_420)" fill-opacity="0.7"/>
<path d="M259.503 1164.49C242.196 1175.5 222.428 1182.05 201.97 1183.54C168.584 1186.05 135.415 1176.8 103.337 1167.86C92.853 1164.94 82.0099 1161.92 71.5021 1159.42C26.0542 1148.63 -22.2333 1138.89 -69.0441 1148.39C-113.492 1157.25 -149.542 1178.48 -184.406 1199.02C-188.082 1201.19 -191.883 1203.42 -195.591 1205.59L-195.95 1204.97C-192.242 1202.81 -188.437 1200.57 -184.769 1198.41C-149.853 1177.84 -113.748 1156.57 -69.184 1147.69C-22.2322 1138.16 26.1442 1147.92 71.6692 1158.73C82.1907 1161.23 93.0419 1164.25 103.532 1167.17C135.55 1176.1 168.654 1185.32 201.919 1182.83C259.355 1178.51 295.506 1137.48 323.301 1097.91C337.139 1078.06 349.553 1057.25 360.449 1035.64C371.863 1013.55 382.574 990.189 392.93 967.596C410.521 929.224 428.711 889.547 451.367 853.65C468.701 825.736 489.781 800.33 514.018 778.143C538.272 756.222 565.853 738.293 595.732 725.026C606.667 720.197 618.195 715.753 629.987 711.802C658.076 702.442 689.582 695.727 726.303 691.273C759.151 687.289 792.027 685.521 825.621 683.921C832.283 683.608 839.113 683.31 845.721 683.025C855.662 682.594 865.941 682.148 876.064 681.622C924.558 679.131 980.281 674.936 1027.93 656.531C1059.22 644.529 1087.57 625.947 1111.07 602.042C1146.22 566.712 1168.08 522.49 1189.22 479.724C1198.08 461.8 1207.24 443.267 1217.21 425.771C1226.56 409.354 1236.03 393.437 1248.91 379.139C1262.93 363.166 1280.91 351.163 1301.04 344.336C1343.18 330.042 1388.4 327.895 1432.14 325.82C1444.6 325.232 1456.39 324.669 1468.09 323.837L1468.13 324.541C1456.43 325.373 1444.64 325.933 1432.17 326.525C1388.48 328.599 1343.31 330.742 1301.27 345.004C1255.13 360.653 1233.56 398.493 1217.82 426.124C1207.86 443.601 1198.7 462.126 1189.85 480.041C1168.69 522.858 1146.8 567.132 1111.57 602.545C1100.45 613.815 1088.24 623.96 1075.13 632.835C1060.45 642.706 1044.7 650.876 1028.18 657.188C980.434 675.63 924.642 679.834 876.096 682.326C865.974 682.852 855.689 683.3 845.746 683.73C839.137 684.01 832.308 684.313 825.649 684.626C754.221 688.031 690.213 692.477 630.202 712.475C618.428 716.414 606.925 720.854 596.01 725.674C537.758 751.548 489.29 794.735 451.954 854.026C429.322 889.883 411.146 929.535 393.562 967.888C383.205 990.495 372.487 1013.86 361.066 1035.96C350.155 1057.6 337.723 1078.43 323.865 1098.31C312.719 1114.18 295.356 1137.29 273.363 1154.68C268.922 1158.2 264.29 1161.47 259.488 1164.48" fill="url(#paint8_linear_81_420)" fill-opacity="0.7"/>
<path d="M278.35 1158.2C261.68 1168.78 242.579 1174.92 222.865 1176.03C188.509 1178.09 154.499 1167.61 121.61 1157.46C110.377 1154 98.7617 1150.42 87.5256 1147.49C42.7557 1135.81 -9.14429 1124.28 -58.5257 1135.47C-104.905 1145.81 -141.723 1170.34 -177.33 1194.05C-180.852 1196.4 -184.496 1198.82 -188.051 1201.17L-188.474 1200.53C-184.919 1198.18 -181.277 1195.76 -177.755 1193.41C-142.092 1169.66 -105.211 1145.09 -58.6943 1134.72C-9.14528 1123.5 42.8661 1135.05 87.7201 1146.74C98.9725 1149.68 110.596 1153.26 121.83 1156.73C154.656 1166.85 188.598 1177.32 222.816 1175.26C279.927 1171.84 315.047 1129.72 341.873 1088.98C355.059 1068.79 366.861 1047.74 377.197 1025.95C387.825 1004.12 397.825 981.067 407.494 958.77C424.434 919.708 441.95 879.317 463.966 842.666C480.612 814.455 500.984 788.617 524.531 765.847C548.092 743.35 575.108 724.778 604.55 710.836C615.356 705.755 626.744 701.069 638.398 696.907C666.387 686.951 697.699 679.827 734.122 675.122C768.373 670.699 803.204 668.904 833.168 667.566C841.404 667.201 849.856 666.878 858.026 666.566C866.372 666.247 875 665.916 883.486 665.539C934.473 663.319 988.207 659.801 1035.46 643.648C1066.97 633.018 1096.1 616.33 1121.21 594.522C1160.15 561.259 1186.18 518.61 1211.35 477.371C1220.83 461.834 1230.64 445.768 1241 430.406C1250.51 416.318 1261.29 400.351 1275.26 386.17C1289.94 370.905 1308.01 359.316 1328 352.344C1369.43 338.003 1413.65 334.257 1456.42 330.634C1469.41 329.534 1481.68 328.495 1493.88 327.171L1493.97 327.934C1481.75 329.26 1469.48 330.299 1456.49 331.398C1413.76 335.015 1369.59 338.755 1328.26 353.068C1283.72 368.49 1260.39 403.056 1241.64 430.831C1231.29 446.178 1221.49 462.234 1212.01 477.77C1199.41 498.418 1186.38 519.77 1171.89 539.681C1155.64 562.017 1139.23 580.148 1121.71 595.108C1109.81 605.359 1097.01 614.536 1083.49 622.531C1068.35 631.426 1052.34 638.746 1035.71 644.375C988.365 660.559 934.569 664.084 883.525 666.306C875.039 666.682 866.407 667.013 858.062 667.334C849.891 667.647 841.44 667.971 833.205 668.335C765.605 671.351 699.859 675.865 638.662 697.631C627.03 701.785 615.666 706.462 604.884 711.532C547.19 738.826 501.313 781.848 464.636 843.057C442.646 879.665 425.141 920.033 408.21 959.07C398.536 981.374 388.531 1004.44 377.9 1026.28C367.549 1048.09 355.731 1069.18 342.526 1089.4C330.881 1107.08 314.814 1129.62 293.759 1147.03C288.879 1151.09 283.736 1154.82 278.364 1158.19" fill="url(#paint9_linear_81_420)" fill-opacity="0.7"/>
<path d="M297.533 1151.7C281.39 1161.92 262.844 1167.72 243.753 1168.52C208.368 1170.13 173.45 1158.41 139.692 1147.07C127.769 1143.06 115.441 1138.92 103.535 1135.57C57.4033 1122.52 3.84287 1109.68 -48.0184 1122.56C-96.3281 1134.41 -133.899 1162.25 -170.235 1189.17C-173.619 1191.67 -177.11 1194.26 -180.52 1196.77L-181.006 1196.1C-177.593 1193.6 -174.105 1191.01 -170.722 1188.5C-152.823 1175.24 -134.313 1161.53 -114.23 1149.65C-91.4968 1136.2 -69.9025 1127.08 -48.2122 1121.76C-25.1457 1116.03 -0.0215962 1114.94 28.5942 1118.41C55.367 1121.66 81.6172 1128.51 103.763 1134.77C115.684 1138.14 128.026 1142.29 139.957 1146.29C173.648 1157.61 208.485 1169.31 243.721 1167.7C300.614 1165.11 334.655 1121.94 360.453 1080.06C372.983 1059.54 384.172 1038.23 393.951 1016.27C403.796 994.744 413.083 972.043 422.066 950.096C438.352 910.296 455.191 869.141 476.576 831.682C492.536 803.173 512.199 776.901 535.052 753.552C557.916 730.486 584.362 711.273 613.364 696.656C624.032 691.323 635.284 686.399 646.805 682.02C674.676 671.466 705.789 663.932 741.937 658.978C775.582 654.367 809.294 652.524 840.713 651.217C850.658 650.807 860.863 650.472 870.729 650.149C877.346 649.933 884.189 649.708 890.911 649.461C944.416 647.554 996.306 644.686 1042.99 630.77C1074.76 621.399 1104.66 606.591 1131.37 587.004C1174.73 555.69 1204.06 516.124 1235.11 474.228C1244.68 461.314 1254.58 447.961 1264.82 435.035L1265.96 433.587C1287.49 406.395 1311.9 375.578 1354.97 360.356C1395.63 345.984 1438.81 340.705 1480.57 335.6C1494.12 333.943 1506.92 332.378 1519.69 330.512L1519.8 331.327C1507.04 333.191 1494.23 334.759 1480.67 336.418C1438.96 341.518 1395.82 346.792 1355.25 361.134C1312.4 376.279 1288.07 406.997 1266.61 434.102L1265.47 435.55C1255.24 448.466 1245.34 461.814 1235.78 474.722C1220.87 494.826 1205.47 515.614 1188.72 534.799C1169.97 556.292 1151.37 573.587 1131.86 587.676C1119.18 596.894 1105.8 605.103 1091.83 612.229C1076.26 620.139 1059.99 626.61 1043.23 631.561C996.458 645.504 944.51 648.373 890.951 650.287C884.228 650.532 877.385 650.757 870.766 650.974C860.901 651.297 850.7 651.632 840.759 652.043C776.854 654.698 709.26 659.26 647.108 682.792C635.612 687.162 624.388 692.074 613.745 697.395C557.392 725.712 512.761 769.774 477.288 832.095C455.935 869.503 439.107 910.632 422.831 950.408C413.847 972.365 404.555 995.072 394.703 1016.61C384.91 1038.6 373.704 1059.94 361.156 1080.49C344.615 1107.35 324.686 1134.73 297.537 1151.7" fill="url(#paint10_linear_81_420)" fill-opacity="0.7"/>
<path d="M316.78 1145.17C301.148 1155.05 283.137 1160.52 264.651 1161.01C228.192 1162.16 192.337 1149.2 157.659 1136.66C145.09 1132.12 132.091 1127.42 119.563 1123.62C68.5424 1108.14 14.2026 1095.74 -37.4974 1109.63C-87.7397 1122.99 -126.055 1154.17 -163.105 1184.33C-166.349 1186.97 -169.704 1189.7 -172.979 1192.34L-173.532 1191.66C-170.259 1189.02 -166.905 1186.29 -163.661 1183.64C-145.423 1168.8 -126.564 1153.45 -105.948 1140.12C-82.6046 1125.03 -60.2865 1114.78 -37.7198 1108.78C14.1892 1094.83 68.6727 1107.26 119.82 1122.78C132.374 1126.59 145.382 1131.29 157.963 1135.84C192.561 1148.34 228.338 1161.28 264.628 1160.13C321.399 1158.33 354.314 1114.13 379.034 1071.12C390.904 1050.27 401.48 1028.72 410.703 1006.57C419.77 985.406 428.347 963.122 436.643 941.573C452.267 900.98 468.427 859.007 489.171 820.693C504.447 791.881 523.402 765.177 545.56 741.251C567.727 717.616 593.604 697.76 622.17 682.465C632.908 676.782 643.935 671.66 655.205 667.122C682.933 655.976 713.855 648.029 749.746 642.823C784.267 637.818 818.912 635.988 848.252 634.859C860.038 634.41 872.12 634.087 883.805 633.775C888.649 633.646 893.49 633.513 898.328 633.377C954.468 631.816 1004.67 629.574 1050.51 617.887C1082.62 609.764 1113.3 596.814 1141.52 579.48C1190.17 550.038 1224.64 511.247 1261.15 470.173C1270.05 460.154 1279.26 449.795 1288.63 439.659C1289.71 438.493 1290.79 437.318 1291.88 436.131C1314.71 411.354 1340.58 383.276 1381.93 368.364C1421.75 353.998 1463.81 347.251 1504.5 340.734C1518.69 338.466 1532.08 336.312 1545.47 333.845L1545.63 334.71C1532.23 337.176 1518.83 339.324 1504.64 341.6C1464 348.115 1421.98 354.848 1382.23 369.189C1341.09 384.029 1315.29 412.025 1292.53 436.725C1291.44 437.91 1290.35 439.086 1289.28 440.253C1279.92 450.383 1270.71 460.74 1261.81 470.755C1244.25 490.522 1226.08 510.964 1206.71 529.576C1185.06 550.403 1163.88 566.969 1141.98 580.225C1113.69 597.607 1082.92 610.593 1050.73 618.738C1004.8 630.448 954.548 632.694 898.353 634.256C893.518 634.395 888.677 634.528 883.83 634.654C872.147 634.967 860.069 635.289 848.287 635.739C788.016 638.058 718.447 642.651 655.535 667.938C644.294 672.465 633.296 677.572 622.585 683.241C567.596 712.569 524.21 757.669 489.947 821.111C469.228 859.374 453.081 901.322 437.466 941.889C429.168 963.447 420.587 985.739 411.514 1006.92C402.276 1029.09 391.683 1050.68 379.794 1071.56C363.701 1099.56 344.123 1128.08 316.78 1145.17Z" fill="url(#paint11_linear_81_420)" fill-opacity="0.7"/>
<path d="M336.22 1138.56C332.374 1140.97 328.369 1143.12 324.232 1144.99C312.049 1150.42 298.885 1153.32 285.546 1153.49C248.137 1154.18 211.449 1140.04 175.97 1126.38C162.026 1121.01 148.854 1115.94 135.581 1111.68C85.7201 1095.49 27.4174 1081.06 -26.9776 1096.71C-79.1501 1111.58 -118.19 1146.13 -155.952 1179.54C-159.068 1182.3 -162.29 1185.16 -165.435 1187.92L-166.057 1187.22C-162.912 1184.45 -159.691 1181.6 -156.576 1178.84C-138.004 1162.41 -118.802 1145.42 -97.6579 1130.63C-73.7043 1113.88 -50.6719 1102.49 -27.2406 1095.81C-2.37785 1088.65 24.6203 1087.13 55.305 1091.15C85.0762 1095.05 113.997 1103.7 135.866 1110.8C149.163 1115.06 162.346 1120.14 176.304 1125.51C211.698 1139.14 248.3 1153.24 285.528 1152.56C342.261 1151.52 374.019 1106.3 397.606 1062.2C408.816 1041.02 418.782 1019.22 427.454 996.886C435.753 976.138 443.619 954.333 451.232 933.243C466.191 891.798 481.66 848.94 501.773 809.711C534.889 744.952 577.155 698.688 630.976 668.275C641.555 662.342 652.447 656.984 663.604 652.226C724.216 626.42 791.792 620.765 855.789 618.501C869.569 618.018 883.67 617.735 897.307 617.462L905.742 617.292C956.952 616.27 1009.91 615.223 1058.04 605.001C1090.55 598.076 1122.02 586.97 1151.68 571.96C1206.81 544.335 1247.41 505.828 1290.4 465.06C1297.57 458.256 1304.99 451.222 1312.43 444.286C1314.38 442.475 1316.33 440.646 1318.3 438.796C1342.21 416.362 1369.32 390.935 1408.88 376.375C1447.76 362.061 1488.6 353.944 1528.1 346.093C1542.37 343.257 1557.13 340.324 1571.25 337.186L1571.46 338.099C1557.32 341.238 1542.56 344.172 1528.28 347.009C1488.82 354.854 1448.02 362.963 1409.2 377.251C1369.82 391.745 1342.79 417.108 1318.94 439.477C1316.97 441.321 1315.01 443.154 1313.08 444.975C1305.64 451.908 1298.22 458.94 1291.05 465.743C1256.11 498.875 1222.75 530.519 1181.87 556.067C1172.39 561.993 1162.51 567.589 1152.1 572.803C1122.38 587.85 1090.83 598.984 1058.24 605.928C1010.03 616.169 957.026 617.221 905.77 618.24L897.333 618.41C883.698 618.682 869.603 618.967 855.83 619.449C791.922 621.711 724.448 627.352 663.978 653.099C652.853 657.844 641.993 663.186 631.445 669.102C577.79 699.415 535.642 745.552 502.612 810.144C482.527 849.321 467.067 892.15 452.119 933.567C444.504 954.666 436.63 976.481 428.331 997.239C419.647 1019.6 409.667 1041.44 398.442 1062.64C388.27 1081.65 374.133 1105.82 354.882 1124.04C349.165 1129.49 342.919 1134.36 336.236 1138.57" fill="url(#paint12_linear_81_420)" fill-opacity="0.7"/>
<path d="M355.822 1131.87C341.03 1141.16 323.9 1146.06 306.431 1145.98C267.876 1146.19 230.161 1130.82 193.689 1115.96C179.148 1110.03 165.413 1104.44 151.593 1099.75C100.24 1082.16 40.1134 1066.51 -16.4674 1083.79C-70.5699 1100.18 -110.333 1138.13 -148.789 1174.82C-151.784 1177.68 -154.875 1180.63 -157.904 1183.5L-158.586 1182.78C-155.564 1179.92 -152.468 1176.96 -149.473 1174.1C-130.571 1156.07 -111.024 1137.42 -89.3622 1121.17C-64.8086 1102.74 -41.0605 1090.21 -16.7553 1082.84C8.98075 1074.98 36.9168 1073.25 68.6507 1077.54C99.6679 1081.74 129.441 1091.11 151.913 1098.81C165.761 1103.51 179.509 1109.11 194.064 1115.04C230.446 1129.87 268.067 1145.2 306.428 1144.99C363.188 1144.69 393.76 1098.45 416.178 1053.27C426.724 1031.78 436.079 1009.72 444.202 987.198C451.73 966.941 458.897 945.681 465.83 925.12C480.115 882.752 494.886 838.943 514.365 798.718C546.233 732.784 587.255 685.467 639.78 654.085C650.199 647.902 660.956 642.308 672.001 637.33C699.413 624.994 729.946 616.227 765.36 610.514C793.315 606.008 823.529 603.427 863.327 602.142C879.276 601.632 895.561 601.429 911.306 601.229L920.115 601.124C968.947 600.559 1019.44 599.975 1065.57 592.114C1098.58 586.464 1130.87 577.18 1161.84 564.43C1225.06 538.649 1273.18 499.787 1324.14 458.657C1328.16 455.415 1332.19 452.162 1336.24 448.897C1339.26 446.46 1342.37 443.936 1345.38 441.488C1370.12 421.344 1398.17 398.513 1435.82 384.371C1473.59 370.188 1513.03 360.817 1551.17 351.752C1566.32 348.15 1581.99 344.429 1597.03 340.509L1597.28 341.467C1582.23 345.385 1566.56 349.116 1551.4 352.712C1513.29 361.768 1473.88 371.132 1436.17 385.294C1398.67 399.383 1370.69 422.157 1346 442.252C1343 444.7 1339.89 447.231 1336.86 449.664C1332.81 452.925 1328.78 456.178 1324.77 459.423C1292.8 485.233 1261.93 510.15 1227.75 531.512C1206.92 544.656 1184.99 555.975 1162.21 565.343C1131.18 578.123 1098.82 587.43 1065.74 593.094C1019.54 600.967 969 601.553 920.128 602.119L911.32 602.223C895.578 602.422 879.3 602.618 863.361 603.137C803.187 605.08 733.443 610.769 672.409 638.237C661.398 643.201 650.674 648.777 640.288 654.941C587.933 686.22 547.035 733.392 515.257 799.154C495.805 839.313 481.039 883.096 466.764 925.435C459.83 946.003 452.659 967.271 445.128 987.541C436.993 1010.1 427.623 1032.19 417.062 1053.71C402.074 1083.92 383.446 1114.6 355.819 1131.87" fill="url(#paint13_linear_81_420)" fill-opacity="0.7"/>
<path d="M375.58 1125.11C361.134 1134.15 344.367 1138.8 327.326 1138.47C287.599 1138.18 248.841 1121.58 211.357 1105.52C196.241 1099.05 181.963 1092.93 167.613 1087.82C114.751 1068.82 52.7945 1051.95 -5.94694 1070.87C-61.9812 1088.8 -102.456 1130.16 -141.6 1170.15C-144.479 1173.09 -147.457 1176.13 -150.364 1179.08L-151.109 1178.35C-148.204 1175.4 -145.227 1172.35 -142.348 1169.41C-123.121 1149.77 -103.239 1129.46 -81.0543 1111.72C-55.9025 1091.62 -31.4383 1077.92 -6.2643 1069.87C52.7733 1050.85 114.941 1067.77 167.968 1086.83C182.354 1091.95 196.633 1098.08 211.768 1104.55C249.156 1120.57 287.821 1137.13 327.332 1137.41C384.183 1137.82 413.538 1090.59 434.753 1044.34C444.632 1022.53 453.376 1000.22 460.951 977.505C467.721 957.813 474.192 937.181 480.449 917.228C494.046 873.863 508.113 829.017 526.968 787.733C557.562 720.593 597.345 672.236 648.591 639.899C658.849 633.467 669.473 627.636 680.407 622.436C707.644 609.505 737.989 600.322 773.177 594.364C801.051 589.644 832.095 586.919 870.875 585.788C887.508 585.307 904.552 585.196 920.585 585.123C925.976 585.102 931.367 585.087 936.759 585.078C982.324 584.975 1029.44 584.868 1073.12 579.239C1106.71 574.895 1139.81 567.422 1172.01 556.916C1245.46 533.143 1303.73 492.672 1360.07 453.53C1364.58 450.402 1369.01 447.26 1373.69 443.937C1400.07 425.235 1427.34 405.895 1462.79 392.393C1499.07 378.411 1536.78 367.997 1573.26 357.925C1589.62 353.407 1606.54 348.734 1622.82 343.867L1623.12 344.869C1606.83 349.737 1589.9 354.414 1573.54 358.933C1537.09 368.998 1499.39 379.407 1463.16 393.371C1427.84 406.828 1400.62 426.127 1374.3 444.792C1369.61 448.12 1365.17 451.264 1360.67 454.395C1304.26 493.578 1245.93 534.097 1172.33 557.916C1140.07 568.442 1106.9 575.929 1073.25 580.281C1029.51 585.924 982.359 586.031 936.76 586.134C931.37 586.146 925.98 586.161 920.589 586.179C904.563 586.251 887.522 586.366 870.905 586.844C811.332 588.581 742.168 594.282 680.856 623.391C669.958 628.572 659.372 634.383 649.15 640.795C598.082 673.018 558.434 721.225 527.92 788.178C509.092 829.402 495.039 874.214 481.448 917.551C475.188 937.511 468.713 958.144 461.938 977.856C454.352 1000.6 445.594 1022.94 435.701 1044.79C421.356 1076.06 403.296 1107.78 375.575 1125.11" fill="url(#paint14_linear_81_420)" fill-opacity="0.7"/>
<path d="M1648.96 348.25C1630.91 354.345 1612.22 360.244 1594.15 365.95C1559.87 376.771 1524.42 387.961 1490.15 401.433C1457.3 414.21 1430.11 431.015 1403.81 447.267C1397.15 451.385 1390.85 455.277 1384.46 459.109C1354.59 477.017 1322.19 495.846 1287.73 512.22C1254.02 528.503 1218.74 541.32 1182.44 550.474C1149.04 558.78 1115.04 564.46 1080.75 567.465C1040.09 571.047 996.862 570.692 955.065 570.346C946.197 570.272 937.026 570.196 927.999 570.162C912.333 570.105 895.486 570.114 878.442 570.553C822.865 572 751.14 577.626 689.297 608.548C678.511 613.947 668.061 619.992 658.005 626.652C608.197 659.798 569.789 709.049 540.578 777.206C522.379 819.582 509.044 865.518 496.149 909.943C490.558 929.204 484.777 949.123 478.75 968.171C470.54 994.343 462.561 1016.48 454.337 1035.86C445.801 1056.08 433.73 1081.74 416.002 1100.95C407.765 1110.11 397.843 1117.59 386.776 1123C374.718 1128.62 361.514 1131.35 348.216 1130.97C307.311 1130.18 267.486 1112.34 228.971 1095.08C213.296 1088.06 198.489 1081.43 183.629 1075.89C129.249 1055.48 65.4514 1037.4 4.57003 1057.95C-53.3951 1077.43 -94.5731 1122.21 -134.393 1165.52C-137.219 1168.59 -140.029 1171.64 -142.823 1174.67L-143.631 1173.92C-140.836 1170.9 -138.027 1167.85 -135.203 1164.77C-115.654 1143.51 -95.4396 1121.53 -72.7443 1102.31C-46.9995 1080.51 -21.8232 1065.66 4.22199 1056.91C31.7019 1047.63 61.5149 1045.48 95.3544 1050.33C129.194 1055.18 162.163 1066.65 184.015 1074.86C198.902 1080.4 213.728 1087.05 229.42 1094.08C267.834 1111.29 307.556 1129.08 348.235 1129.86C405.238 1130.96 433.346 1082.74 453.326 1035.44C461.53 1016.09 469.502 993.975 477.702 967.838C483.725 948.801 489.504 928.889 495.092 909.633C507.996 865.176 521.339 819.207 539.566 776.77C553.634 743.949 569.346 716.247 587.603 692.082C597.221 679.309 607.843 667.322 619.366 656.237C631.122 644.971 643.848 634.763 657.397 625.732C667.492 619.05 677.982 612.984 688.808 607.567C715.86 594.04 746.014 584.445 780.989 578.235C809.102 573.243 840.061 570.453 878.419 569.454C895.476 569.015 912.333 569.006 928.008 569.061C937.035 569.103 946.203 569.176 955.074 569.247C996.847 569.592 1040.04 569.95 1080.66 566.371C1114.89 563.373 1148.84 557.703 1182.18 549.412C1259.97 530.165 1324.49 493.784 1383.9 458.174C1390.29 454.343 1396.58 450.455 1403.24 446.34C1429.58 430.062 1456.81 413.224 1489.75 400.417C1524.06 386.937 1559.52 375.743 1593.82 364.916C1611.89 359.212 1630.57 353.314 1648.61 347.222L1648.96 348.25Z" fill="url(#paint15_linear_81_420)" fill-opacity="0.7"/>
<path d="M1674.79 351.633C1653.68 359.586 1631.88 367.328 1610.81 374.814C1579.99 385.757 1548.13 397.074 1517.13 409.487C1487.56 421.232 1461.39 435.355 1436.08 449.013C1426.5 454.182 1417.45 459.065 1408.25 463.813C1367.83 484.675 1335.79 499.352 1304.38 511.418C1268.21 525.52 1230.76 536.104 1192.55 543.024C1158.07 549.145 1123.23 553.023 1088.25 554.634C1051.51 556.393 1012.99 555.603 975.742 554.839C962.528 554.567 948.863 554.287 935.413 554.122C921.886 553.96 904.046 553.831 885.987 554.241C830.874 555.503 759.672 561.126 697.744 593.685C687.069 599.302 676.757 605.582 666.867 612.488C618.305 646.549 581.135 696.833 553.241 766.213C535.667 809.845 523.07 857.011 510.894 902.62C505.963 921.084 500.863 940.176 495.566 958.469C487.919 985.093 480.533 1007.49 472.984 1026.93C465.016 1047.52 453.653 1073.66 436.392 1093.25C428.402 1102.57 418.623 1110.19 407.635 1115.66C395.615 1121.34 382.394 1124.01 369.11 1123.45C327.014 1122.15 286.108 1103.07 246.548 1084.62C230.329 1077.06 215.008 1069.91 199.651 1063.95C143.745 1042.14 78.0992 1022.83 15.0916 1045.03C-44.8038 1066.06 -88.5632 1116.45 -127.173 1160.92C-129.891 1164.05 -132.593 1167.16 -135.279 1170.24L-136.153 1169.48C-133.463 1166.4 -130.761 1163.29 -128.046 1160.16C-108.178 1137.28 -87.6361 1113.62 -64.4279 1092.91C-38.0925 1069.4 -12.2072 1053.38 14.7088 1043.93C43.0598 1033.95 73.8052 1031.59 108.705 1036.72C143.757 1041.88 177.637 1054.12 200.072 1062.87C215.463 1068.84 230.8 1076 247.036 1083.57C286.49 1101.96 327.286 1120.99 369.141 1122.29C426.349 1124.06 453.187 1074.87 471.899 1026.51C479.435 1007.11 486.81 984.744 494.443 958.157C499.733 939.878 504.825 920.794 509.76 902.334C521.951 856.687 534.558 809.488 552.157 765.79C565.556 732.466 580.584 704.335 598.103 679.791C607.384 666.741 617.692 654.453 628.93 643.045C640.389 631.454 652.862 620.911 666.198 611.541C676.128 604.606 686.482 598.301 697.2 592.661C724.06 578.54 754.019 568.534 788.793 562.071C817.096 556.81 847.971 553.955 885.957 553.084C904.034 552.674 921.891 552.809 935.426 552.967C948.883 553.132 962.548 553.412 975.766 553.683C1013 554.446 1051.49 555.236 1088.19 553.479C1123.12 551.871 1157.92 547.998 1192.35 541.886C1275.64 527.053 1345.08 495.103 1407.71 462.786C1416.91 458.043 1425.95 453.162 1435.53 447.996C1460.87 434.322 1487.07 420.179 1516.7 408.412C1547.71 395.993 1579.59 384.671 1610.42 373.724C1631.49 366.237 1653.28 358.5 1674.38 350.551L1674.79 351.633Z" fill="url(#paint16_linear_81_420)" fill-opacity="0.7"/>
<path d="M1700.64 355.014C1672.09 366.888 1642.71 378.437 1614.3 389.606C1591.26 398.664 1567.43 408.031 1544.11 417.547C1519.73 427.441 1496.75 438.32 1474.54 448.84C1459.92 455.763 1446.1 462.307 1432.04 468.524C1391.63 486.398 1355.32 500.159 1321.04 510.612C1282.43 522.544 1242.81 530.901 1202.66 535.579C1167.16 539.56 1131.47 541.641 1095.75 541.813C1064.19 542.065 1031.51 540.924 999.903 539.821C981.206 539.166 961.873 538.488 942.821 538.096C923.588 537.709 907.922 537.66 893.522 537.943C838.83 539.024 768.114 544.638 706.185 578.832C695.62 584.667 685.444 591.181 675.722 598.333C628.373 633.291 592.449 684.612 565.897 755.228C548.952 800.235 537.112 848.753 525.658 895.668C521.375 913.215 516.949 931.362 512.372 948.771C505.193 976.254 498.598 998.251 491.617 1017.99C484.227 1038.95 473.585 1065.56 456.768 1085.52C449.026 1095 439.392 1102.76 428.48 1108.29C416.497 1114.04 403.256 1116.67 389.986 1115.93C346.689 1114.09 304.689 1093.78 264.072 1074.14C247.319 1066.04 231.492 1058.39 215.654 1052.01C161.573 1030.14 91.097 1008.12 25.5962 1032.1C-36.2296 1054.68 -80.7136 1108.7 -119.953 1156.35C-122.569 1159.53 -125.172 1162.68 -127.761 1165.81L-128.697 1165.04C-126.107 1161.91 -123.505 1158.76 -120.891 1155.58C-100.71 1131.07 -79.844 1105.72 -56.1246 1083.51C-29.2023 1058.3 -2.60866 1041.11 25.1772 1030.96C40.7023 1025.33 56.9447 1021.92 73.4227 1020.84C89.6614 1019.83 105.962 1020.59 122.036 1023.11C149.636 1027.27 179.528 1036.09 216.106 1050.88C231.982 1057.27 247.827 1064.94 264.599 1073.05C305.105 1092.64 346.989 1112.89 390.036 1114.72C447.48 1117.16 473.044 1066.99 490.466 1017.59C497.435 997.88 504.02 975.915 511.191 948.465C515.765 931.06 520.191 912.921 524.472 895.381C535.936 848.432 547.783 799.876 564.759 754.797C577.482 720.96 591.828 692.401 608.616 667.487C617.559 654.162 627.554 641.574 638.504 629.843C649.665 617.934 661.881 607.06 675.002 597.354C684.766 590.169 694.986 583.626 705.597 577.766C732.256 563.049 762.024 552.63 796.607 545.912C824.67 540.462 856.365 537.455 893.503 536.722C907.921 536.44 923.606 536.486 942.851 536.876C961.91 537.266 981.248 537.942 999.945 538.593C1031.53 539.698 1064.2 540.842 1095.74 540.587C1131.42 540.415 1167.06 538.337 1202.52 534.361C1274.99 526.053 1345.62 505.403 1431.54 467.402C1445.6 461.184 1459.4 454.649 1474.01 447.73C1496.25 437.202 1519.24 426.314 1543.65 416.409C1566.98 406.891 1590.81 397.523 1613.85 388.463C1642.26 377.296 1671.63 365.75 1700.16 353.88L1700.64 355.014Z" fill="url(#paint17_linear_81_420)" fill-opacity="0.7"/>
<path d="M1726.48 358.393C1681.46 378.898 1632.08 400.255 1571.1 425.605C1558.26 430.924 1545.46 436.365 1533.09 441.626C1506.55 452.91 1481.48 463.569 1455.83 473.233C1367.73 506.415 1290.5 523.859 1212.77 528.131C1180.84 529.981 1146.04 530.254 1103.25 528.991C1079.23 528.205 1054.65 526.915 1030.87 525.664C1004.47 524.277 977.167 522.842 950.242 522.073C931.463 521.54 915.839 521.405 901.071 521.648C851.005 522.476 777.209 527.766 714.639 563.982C704.183 570.035 694.145 576.784 684.593 584.182C637.791 620.521 604.102 671.384 578.565 744.248C562.251 790.767 551.189 840.773 540.491 889.132C536.843 905.626 533.069 922.68 529.191 939.082C522.59 967.094 516.576 989.331 510.263 1009.06C503.453 1030.37 493.543 1057.45 477.162 1077.81C469.671 1087.44 460.18 1095.34 449.343 1100.95C437.398 1106.76 424.138 1109.34 410.886 1108.42C366.38 1106.04 323.276 1084.5 281.592 1063.67C264.314 1055.03 247.999 1046.88 231.679 1040.08C176.149 1016.88 103.741 993.549 36.1231 1019.18C-27.632 1043.33 -72.8245 1100.97 -112.696 1151.83C-115.212 1155.04 -117.718 1158.23 -120.213 1161.4L-121.21 1160.62C-118.717 1157.45 -116.213 1154.26 -113.697 1151.04C-93.2025 1124.9 -72.0098 1097.87 -47.7883 1074.15C-20.2831 1047.22 7.01818 1028.85 35.6745 1017.99C51.6193 1012 68.35 1008.36 85.3422 1007.18C102.062 1006.08 118.853 1006.86 135.398 1009.51C163.912 1013.9 194.661 1023.24 232.17 1038.9C248.534 1045.73 264.865 1053.89 282.161 1062.53C323.728 1083.3 366.713 1104.78 410.955 1107.16C437.386 1108.57 458.715 1098.71 476.174 1077.01C492.422 1056.81 502.281 1029.88 509.055 1008.67C515.354 988.969 521.363 966.765 527.956 938.787C531.828 922.396 535.603 905.344 539.251 888.854C549.957 840.459 561.026 790.415 577.366 743.823C589.407 709.469 603.068 680.48 619.133 655.202C637.542 626.236 658.7 602.676 683.813 583.175C693.41 575.741 703.496 568.96 714.003 562.879C740.455 547.567 770.03 536.737 804.418 529.767C832.598 524.054 864.208 520.982 901.049 520.372C915.837 520.128 931.479 520.263 950.278 520.799C977.213 521.564 1004.53 523.009 1030.94 524.391C1054.71 525.64 1079.29 526.932 1103.29 527.718C1146.04 528.981 1180.81 528.708 1212.7 526.86C1290.29 522.596 1367.4 505.177 1455.38 472.041C1481.01 462.386 1506.07 451.729 1532.6 440.455C1544.97 435.193 1557.77 429.751 1570.61 424.427C1631.59 399.082 1680.95 377.733 1725.95 357.232L1726.48 358.393Z" fill="url(#paint18_linear_81_420)" fill-opacity="0.7"/>
<path d="M1752.31 361.77C1717.52 378.999 1671.64 401.405 1625.23 421.908C1578.69 442.475 1536.54 459.01 1496.35 472.47C1452.81 487.263 1408.28 498.939 1363.09 507.411C1316.85 516.065 1269.92 520.505 1222.88 520.678C1170.83 520.826 1118.14 516.817 1067.19 512.942C1031.31 510.213 994.213 507.39 957.646 506.043C881.431 503.234 793.963 506.157 723.081 549.125C607.775 619.023 581.138 753.255 555.372 883.072C547.163 924.434 539.41 963.501 528.898 1000.12C522.682 1021.78 513.501 1049.31 497.549 1070.08C490.309 1079.87 480.962 1087.9 470.199 1093.58C458.291 1099.46 445.011 1101.99 431.775 1100.91C386.056 1097.97 341.838 1075.2 299.075 1053.18C281.285 1044.02 264.477 1035.37 247.695 1028.14C190.716 1003.62 116.368 978.969 46.6429 1006.26C-19.0437 1031.97 -64.943 1093.26 -105.439 1147.33C-107.863 1150.57 -110.274 1153.78 -112.672 1156.98L-113.734 1156.18C-111.331 1152.98 -108.921 1149.77 -106.505 1146.53C-85.7014 1118.75 -64.188 1090.02 -39.4638 1064.79C-11.378 1036.13 16.628 1016.57 46.1544 1005.02C62.5181 998.664 79.7368 994.784 97.2438 993.503C114.445 992.315 131.725 993.118 148.742 995.896C178.165 1000.52 209.773 1010.37 248.215 1026.91C265.044 1034.16 281.867 1042.82 299.677 1051.99C342.318 1073.95 386.412 1096.65 431.855 1099.58C458.374 1101.29 479.518 1091.38 496.493 1069.27C512.309 1048.67 521.436 1021.3 527.624 999.761C538.12 963.191 545.869 924.15 554.072 882.816C566.774 818.811 579.913 752.631 604.321 693.742C617.515 661.908 632.717 635.151 650.792 611.946C660.479 599.482 671.237 587.888 682.945 577.3C695.147 566.315 708.357 556.505 722.399 547.999C754.576 528.493 791.905 515.836 836.511 509.313C880.303 502.905 924.281 503.497 957.702 504.728C994.295 506.076 1031.41 508.896 1067.3 511.629C1118.23 515.502 1170.88 519.508 1222.88 519.36C1416.31 518.811 1583.41 443.945 1751.73 360.591L1752.31 361.77Z" fill="url(#paint19_linear_81_420)" fill-opacity="0.7"/>
</g>
</g>
<defs>
<linearGradient id="paint0_linear_81_420" x1="445.272" y1="676.759" x2="629.861" y2="972.101" gradientUnits="userSpaceOnUse">
<stop stop-color="#2431DD"/>
<stop offset="1" stop-color="#373737"/>
</linearGradient>
<linearGradient id="paint1_linear_81_420" x1="468.662" y1="687.013" x2="638.165" y2="958.218" gradientUnits="userSpaceOnUse">
<stop stop-color="#2431DD"/>
<stop offset="1" stop-color="#373737"/>
</linearGradient>
<linearGradient id="paint2_linear_81_420" x1="492.058" y1="697.22" x2="646.607" y2="944.498" gradientUnits="userSpaceOnUse">
<stop stop-color="#2431DD"/>
<stop offset="1" stop-color="#373737"/>
</linearGradient>
<linearGradient id="paint3_linear_81_420" x1="515.421" y1="707.419" x2="655.131" y2="930.956" gradientUnits="userSpaceOnUse">
<stop stop-color="#2431DD"/>
<stop offset="1" stop-color="#373737"/>
</linearGradient>
<linearGradient id="paint4_linear_81_420" x1="538.799" y1="717.635" x2="663.787" y2="917.616" gradientUnits="userSpaceOnUse">
<stop stop-color="#2431DD"/>
<stop offset="1" stop-color="#373737"/>
</linearGradient>
<linearGradient id="paint5_linear_81_420" x1="562.204" y1="727.851" x2="672.606" y2="904.494" gradientUnits="userSpaceOnUse">
<stop stop-color="#2431DD"/>
<stop offset="1" stop-color="#373737"/>
</linearGradient>
<linearGradient id="paint6_linear_81_420" x1="575.71" y1="722.231" x2="681.623" y2="891.691" gradientUnits="userSpaceOnUse">
<stop stop-color="#2431DD"/>
<stop offset="1" stop-color="#373737"/>
</linearGradient>
<linearGradient id="paint7_linear_81_420" x1="588.026" y1="714.752" x2="695.424" y2="886.59" gradientUnits="userSpaceOnUse">
<stop stop-color="#2431DD"/>
<stop offset="1" stop-color="#373737"/>
</linearGradient>
<linearGradient id="paint8_linear_81_420" x1="600.353" y1="707.28" x2="710.1" y2="882.876" gradientUnits="userSpaceOnUse">
<stop stop-color="#2431DD"/>
<stop offset="1" stop-color="#373737"/>
</linearGradient>
<linearGradient id="paint9_linear_81_420" x1="612.132" y1="698.934" x2="724.785" y2="879.179" gradientUnits="userSpaceOnUse">
<stop stop-color="#2431DD"/>
<stop offset="1" stop-color="#373737"/>
</linearGradient>
<linearGradient id="paint10_linear_81_420" x1="622.816" y1="688.869" x2="739.46" y2="875.5" gradientUnits="userSpaceOnUse">
<stop stop-color="#2431DD"/>
<stop offset="1" stop-color="#373737"/>
</linearGradient>
<linearGradient id="paint11_linear_81_420" x1="631.612" y1="675.776" x2="754.14" y2="871.822" gradientUnits="userSpaceOnUse">
<stop stop-color="#2431DD"/>
<stop offset="1" stop-color="#373737"/>
</linearGradient>
<linearGradient id="paint12_linear_81_420" x1="640.114" y1="662.226" x2="768.843" y2="868.192" gradientUnits="userSpaceOnUse">
<stop stop-color="#2431DD"/>
<stop offset="1" stop-color="#373737"/>
</linearGradient>
<linearGradient id="paint13_linear_81_420" x1="648.534" y1="648.546" x2="783.534" y2="864.546" gradientUnits="userSpaceOnUse">
<stop stop-color="#2431DD"/>
<stop offset="1" stop-color="#373737"/>
</linearGradient>
<linearGradient id="paint14_linear_81_420" x1="656.868" y1="634.726" x2="798.251" y2="860.939" gradientUnits="userSpaceOnUse">
<stop stop-color="#2431DD"/>
<stop offset="1" stop-color="#373737"/>
</linearGradient>
<linearGradient id="paint15_linear_81_420" x1="665.122" y1="620.783" x2="818.994" y2="866.977" gradientUnits="userSpaceOnUse">
<stop stop-color="#2431DD"/>
<stop offset="1" stop-color="#373737"/>
</linearGradient>
<linearGradient id="paint16_linear_81_420" x1="673.275" y1="606.672" x2="839.976" y2="873.393" gradientUnits="userSpaceOnUse">
<stop stop-color="#2431DD"/>
<stop offset="1" stop-color="#373737"/>
</linearGradient>
<linearGradient id="paint17_linear_81_420" x1="681.347" y1="592.44" x2="860.955" y2="879.814" gradientUnits="userSpaceOnUse">
<stop stop-color="#2431DD"/>
<stop offset="1" stop-color="#373737"/>
</linearGradient>
<linearGradient id="paint18_linear_81_420" x1="689.356" y1="578.099" x2="881.938" y2="886.229" gradientUnits="userSpaceOnUse">
<stop stop-color="#2431DD"/>
<stop offset="1" stop-color="#373737"/>
</linearGradient>
<linearGradient id="paint19_linear_81_420" x1="697.294" y1="563.659" x2="902.911" y2="892.647" gradientUnits="userSpaceOnUse">
<stop stop-color="#2431DD"/>
<stop offset="1" stop-color="#373737"/>
</linearGradient>
</defs>
</svg>
